# File produced by Open Asset Import Library (http://www.assimp.sf.net)
# (assimp v3.1.202510665)

mtllib Glass.mtl

# vertex positions
v -783.485229 163.024216 1299.041016
v -783.485229 113.667328 1299.041016
v -645.992615 113.667328 1299.041016
v -645.992615 163.024216 1299.041016
v -783.485229 163.024216 1292.558105
v -645.992615 163.024216 1292.558105
v -783.485229 113.667328 1292.558105
v -645.992615 113.667328 1292.558105
v -1573.573242 113.667328 1292.558105
v -1573.573242 113.667328 1299.041016
v -1573.573242 163.024216 1299.041016
v -1573.573242 163.024216 1292.558105
v -1436.081177 113.667328 1292.558105
v -1436.081177 113.667328 1299.041016
v -1436.081177 163.024216 1292.558105
v -1436.081177 163.024216 1299.041016
v -1427.332520 113.667328 1292.558105
v -1427.332520 113.667328 1299.041016
v -1427.332520 163.024216 1292.558105
v -1427.332520 163.024216 1299.041016
v -1436.081177 163.024216 1303.038696
v -1436.081177 113.667328 1303.038696
v -1427.332520 113.667328 1303.038696
v -1427.332520 163.024216 1303.038696
v -1328.529907 113.667328 1292.558105
v -1328.529907 113.667328 1299.041016
v -1328.529907 163.024216 1292.558105
v -1328.529907 163.024216 1299.041016
v -1315.849854 113.667328 1292.558105
v -1315.849854 113.667328 1299.041016
v -1315.849854 163.024216 1292.558105
v -1315.849854 163.024216 1299.041016
v -1328.529907 163.024216 1303.038696
v -1328.529907 113.667328 1303.038696
v -1315.849854 113.667328 1303.038696
v -1315.849854 163.024216 1303.038696
v -1074.403687 113.667328 1299.041016
v -1074.403687 113.667328 1292.558105
v -903.716553 113.667328 1292.558105
v -903.716553 113.667328 1299.041016
v -1074.403687 163.024216 1292.558105
v -903.716553 163.024216 1292.558105
v -1074.403687 163.024216 1299.041016
v -903.716553 163.024216 1299.041016
v -891.036621 113.667328 1292.558105
v -891.036621 113.667328 1299.041016
v -891.036621 163.024216 1292.558105
v -891.036621 163.024216 1299.041016
v -903.716553 163.024216 1303.038696
v -903.716553 113.667328 1303.038696
v -891.036621 113.667328 1303.038696
v -891.036621 163.024216 1303.038696
v -792.233459 113.667328 1292.558105
v -792.233459 113.667328 1299.041016
v -792.233459 163.024216 1292.558105
v -792.233459 163.024216 1299.041016
v -792.233459 163.024216 1303.038696
v -792.233459 113.667328 1303.038696
v -783.485229 113.667328 1303.038696
v -783.485229 163.024216 1303.038696
v -1145.162598 113.667328 1292.558105
v -1145.162598 113.667328 1299.041016
v -1145.162598 163.024216 1292.558105
v -1145.162598 163.024216 1299.041016
v -1140.362793 113.667328 1292.558105
v -1140.362793 163.024216 1292.558105
v -1140.362793 163.024216 1299.041016
v -1140.362793 113.667328 1299.041016
v -1079.203491 163.024216 1292.558105
v -1079.203491 113.667328 1292.558105
v -1079.203491 113.667328 1299.041016
v -1079.203491 163.024216 1299.041016
v -783.484985 226.303833 1299.041016
v -783.484985 180.530777 1299.041016
v -645.992432 180.530777 1299.041016
v -645.992432 226.303833 1299.041016
v -783.484985 226.303833 1292.558105
v -645.992432 226.303833 1292.558105
v -783.484985 180.530777 1292.558105
v -645.992432 180.530777 1292.558105
v -1573.573242 180.530777 1292.558105
v -1573.573242 180.530777 1299.041016
v -1573.573242 226.303833 1299.041016
v -1573.573242 226.303833 1292.558105
v -1436.080811 180.530777 1292.558105
v -1436.080811 180.530777 1299.041016
v -1436.080811 226.303833 1292.558105
v -1436.080811 226.303833 1299.041016
v -1427.332520 180.530777 1292.558105
v -1427.332520 180.530777 1299.041016
v -1427.332520 226.303833 1292.558105
v -1427.332520 226.303833 1299.041016
v -1436.080811 226.303833 1303.038696
v -1436.080811 180.530777 1303.038696
v -1427.332520 180.530777 1303.038696
v -1427.332520 226.303833 1303.038696
v -1328.529541 180.530777 1292.558105
v -1328.529541 180.530777 1299.041016
v -1328.529541 226.303833 1292.558105
v -1328.529541 226.303833 1299.041016
v -1315.849487 180.530777 1292.558105
v -1315.849487 180.530777 1299.041016
v -1315.849487 226.303833 1292.558105
v -1315.849487 226.303833 1299.041016
v -1328.529541 226.303833 1303.038696
v -1328.529541 180.530777 1303.038696
v -1315.849487 180.530777 1303.038696
v -1315.849487 226.303833 1303.038696
v -903.716248 180.530777 1292.558105
v -903.716248 180.530777 1299.041016
v -903.716248 226.303833 1292.558105
v -903.716248 226.303833 1299.041016
v -891.036316 180.530777 1292.558105
v -891.036316 180.530777 1299.041016
v -891.036316 226.303833 1292.558105
v -891.036316 226.303833 1299.041016
v -903.716248 226.303833 1303.038696
v -903.716248 180.530777 1303.038696
v -891.036316 180.530777 1303.038696
v -891.036316 226.303833 1303.038696
v -792.233154 180.530777 1292.558105
v -792.233154 180.530777 1299.041016
v -792.233154 226.303833 1292.558105
v -792.233154 226.303833 1299.041016
v -792.233154 226.303833 1303.038696
v -792.233154 180.530777 1303.038696
v -783.484985 180.530777 1303.038696
v -783.484985 226.303833 1303.038696

# UV coordinates
vt 0.515059 0.149629
vt 0.462060 0.149629
vt 0.462060 0.001992
vt 0.515059 0.001992
vt 0.105654 0.149629
vt 0.098693 0.149629
vt 0.098693 0.001992
vt 0.105654 0.001992
vt 0.165510 0.149629
vt 0.112511 0.149629
vt 0.112511 0.001992
vt 0.165510 0.001992
vt 0.179240 0.149629
vt 0.172279 0.149629
vt 0.172279 0.001992
vt 0.179240 0.001992
vt 0.920473 0.111794
vt 0.927434 0.111794
vt 0.927434 0.164792
vt 0.920473 0.164792
vt 0.907810 0.111794
vt 0.914772 0.111794
vt 0.914772 0.164792
vt 0.907810 0.164792
vt 0.190390 0.467164
vt 0.190390 0.319528
vt 0.197351 0.319528
vt 0.197351 0.467164
vt 0.208501 0.467164
vt 0.208501 0.319528
vt 0.261500 0.319528
vt 0.261500 0.467164
vt 0.272561 0.467164
vt 0.272561 0.319528
vt 0.279523 0.319528
vt 0.279523 0.467164
vt 0.521828 0.149628
vt 0.521828 0.001992
vt 0.574826 0.001992
vt 0.574826 0.149628
vt 0.190390 0.310134
vt 0.197351 0.310134
vt 0.208501 0.310134
vt 0.261500 0.310134
vt 0.272561 0.310134
vt 0.279523 0.310134
vt 0.892715 0.164792
vt 0.892715 0.111794
vt 0.902109 0.111794
vt 0.902109 0.164792
vt 0.190390 0.204042
vt 0.197351 0.204042
vt 0.208501 0.204042
vt 0.261500 0.204042
vt 0.272561 0.204042
vt 0.279523 0.204042
vt 0.746884 0.108084
vt 0.693885 0.108084
vt 0.693885 0.001992
vt 0.746884 0.001992
vt 0.190390 0.190426
vt 0.197351 0.190426
vt 0.208501 0.190426
vt 0.261500 0.190426
vt 0.272561 0.190426
vt 0.279523 0.190426
vt 0.873398 0.164792
vt 0.873398 0.111794
vt 0.887013 0.111794
vt 0.887013 0.164792
vt 0.179240 0.462010
vt 0.172279 0.462010
vt 0.172279 0.278730
vt 0.179240 0.278730
vt 0.165510 0.462010
vt 0.112511 0.462010
vt 0.112511 0.278730
vt 0.165510 0.278730
vt 0.105654 0.462010
vt 0.098693 0.462010
vt 0.098693 0.278730
vt 0.105654 0.278730
vt 0.395524 0.185272
vt 0.342525 0.185272
vt 0.342525 0.001992
vt 0.395524 0.001992
vt 0.172279 0.265115
vt 0.179240 0.265115
vt 0.112511 0.265115
vt 0.165510 0.265115
vt 0.098693 0.265115
vt 0.105654 0.265115
vt 0.854081 0.164792
vt 0.854081 0.111794
vt 0.867696 0.111794
vt 0.867696 0.164792
vt 0.172279 0.159022
vt 0.179240 0.159022
vt 0.112511 0.159022
vt 0.165510 0.159022
vt 0.098693 0.159022
vt 0.105654 0.159022
vt 0.806651 0.108085
vt 0.753653 0.108085
vt 0.753653 0.001992
vt 0.806651 0.001992
vt 0.838986 0.164792
vt 0.838986 0.111794
vt 0.848380 0.111794
vt 0.848380 0.164792
vt 0.828992 0.164792
vt 0.828992 0.111794
vt 0.833285 0.111794
vt 0.833285 0.164792
vt 0.201644 0.310134
vt 0.201644 0.319528
vt 0.823291 0.111794
vt 0.823291 0.164792
vt 0.818998 0.164792
vt 0.818998 0.111794
vt 0.268269 0.319528
vt 0.268269 0.310134
vt 0.809004 0.164792
vt 0.809004 0.111794
vt 0.813296 0.111794
vt 0.813296 0.164792
vt 0.201644 0.190426
vt 0.201644 0.204042
vt 0.803302 0.111794
vt 0.803302 0.164792
vt 0.799010 0.164792
vt 0.799010 0.111794
vt 0.268269 0.204042
vt 0.268269 0.190426
vt 0.789016 0.164792
vt 0.789016 0.111794
vt 0.793308 0.111794
vt 0.793308 0.164792
vt 0.183533 0.265115
vt 0.183533 0.278730
vt 0.783314 0.111794
vt 0.783314 0.164792
vt 0.779022 0.164792
vt 0.779022 0.111794
vt 0.094400 0.278730
vt 0.094400 0.265115
vt 0.769028 0.164792
vt 0.769028 0.111794
vt 0.773320 0.111794
vt 0.773320 0.164792
vt 0.183533 0.149629
vt 0.183533 0.159022
vt 0.763326 0.111794
vt 0.763326 0.164792
vt 0.759034 0.164792
vt 0.759034 0.111794
vt 0.094400 0.159022
vt 0.094400 0.149629
vt 0.190390 0.007146
vt 0.197351 0.007146
vt 0.208501 0.007146
vt 0.261500 0.007146
vt 0.272561 0.007146
vt 0.279523 0.007146
vt 0.455291 0.190426
vt 0.402293 0.190426
vt 0.402293 0.007146
vt 0.455291 0.007146
vt 0.753332 0.111794
vt 0.753332 0.164792
vt 0.746371 0.164792
vt 0.746371 0.111794
vt 0.733708 0.164792
vt 0.733708 0.111793
vt 0.740670 0.111793
vt 0.740670 0.164792
vt 0.208501 0.001992
vt 0.261500 0.001992
vt 0.272561 0.001992
vt 0.279523 0.001992
vt 0.402293 0.001992
vt 0.455291 0.001992
vt 0.190390 0.001992
vt 0.197351 0.001992
vt 0.165510 0.467164
vt 0.112511 0.467164
vt 0.179240 0.467165
vt 0.172279 0.467165
vt 0.395524 0.190426
vt 0.342525 0.190426
vt 0.105654 0.467164
vt 0.098693 0.467164
vt 0.630745 0.149628
vt 0.581595 0.149628
vt 0.581595 0.001992
vt 0.630745 0.001992
vt 0.013105 0.149629
vt 0.006144 0.149629
vt 0.006144 0.001992
vt 0.013105 0.001992
vt 0.069294 0.149629
vt 0.020144 0.149629
vt 0.020144 0.001992
vt 0.069294 0.001992
vt 0.083250 0.149629
vt 0.076289 0.149629
vt 0.076289 0.001992
vt 0.083250 0.001992
vt 0.721046 0.111793
vt 0.728007 0.111793
vt 0.728007 0.160943
vt 0.721046 0.160943
vt 0.708383 0.111793
vt 0.715344 0.111793
vt 0.715344 0.160943
vt 0.708383 0.160943
vt 0.076289 0.998008
vt 0.076289 0.850372
vt 0.083250 0.850372
vt 0.083250 0.998008
vt 0.020144 0.998008
vt 0.020144 0.850372
vt 0.069294 0.850372
vt 0.069294 0.998008
vt 0.006144 0.998008
vt 0.006144 0.850372
vt 0.013105 0.850372
vt 0.013105 0.998008
vt 0.637740 0.149628
vt 0.637740 0.001992
vt 0.686890 0.001992
vt 0.686890 0.149628
vt 0.076289 0.840978
vt 0.083250 0.840978
vt 0.020144 0.840978
vt 0.069294 0.840978
vt 0.006144 0.840978
vt 0.013105 0.840978
vt 0.693288 0.160943
vt 0.693288 0.111793
vt 0.702682 0.111793
vt 0.702682 0.160943
vt 0.076289 0.734885
vt 0.083250 0.734885
vt 0.020144 0.734886
vt 0.069294 0.734886
vt 0.006144 0.734885
vt 0.013105 0.734885
vt 0.862570 0.108084
vt 0.813420 0.108084
vt 0.813420 0.001992
vt 0.862570 0.001992
vt 0.076289 0.721270
vt 0.083250 0.721270
vt 0.020144 0.721270
vt 0.069294 0.721270
vt 0.006144 0.721270
vt 0.013105 0.721270
vt 0.673971 0.202488
vt 0.673971 0.153338
vt 0.687586 0.153338
vt 0.687586 0.202488
vt 0.076289 0.278730
vt 0.083250 0.278730
vt 0.020144 0.278730
vt 0.069294 0.278730
vt 0.006144 0.278730
vt 0.013105 0.278730
vt 0.335530 0.444532
vt 0.286380 0.444532
vt 0.286380 0.001992
vt 0.335530 0.001992
vt 0.076289 0.265115
vt 0.083250 0.265115
vt 0.020144 0.265115
vt 0.069294 0.265115
vt 0.006144 0.265115
vt 0.013105 0.265115
vt 0.654654 0.202488
vt 0.654654 0.153338
vt 0.668270 0.153338
vt 0.668270 0.202488
vt 0.076289 0.159022
vt 0.083250 0.159022
vt 0.020144 0.159022
vt 0.069294 0.159022
vt 0.006144 0.159022
vt 0.013105 0.159022
vt 0.918715 0.108085
vt 0.869565 0.108085
vt 0.869565 0.001992
vt 0.918715 0.001992
vt 0.639559 0.202488
vt 0.639559 0.153338
vt 0.648953 0.153338
vt 0.648953 0.202488
vt 0.629565 0.202488
vt 0.629565 0.153338
vt 0.633858 0.153338
vt 0.633858 0.202488
vt 0.087543 0.840978
vt 0.087543 0.850372
vt 0.623864 0.153338
vt 0.623864 0.202488
vt 0.619571 0.202488
vt 0.619571 0.153338
vt 0.001851 0.850372
vt 0.001851 0.840978
vt 0.609577 0.202488
vt 0.609577 0.153338
vt 0.613870 0.153338
vt 0.613870 0.202488
vt 0.087543 0.721270
vt 0.087543 0.734885
vt 0.603876 0.153338
vt 0.603876 0.202488
vt 0.599583 0.202488
vt 0.599583 0.153338
vt 0.001851 0.734885
vt 0.001851 0.721270
vt 0.589589 0.202488
vt 0.589589 0.153338
vt 0.593882 0.153338
vt 0.593882 0.202488
vt 0.087543 0.265115
vt 0.087543 0.278730
vt 0.583888 0.153338
vt 0.583888 0.202488
vt 0.579595 0.202488
vt 0.579595 0.153338
vt 0.001851 0.278730
vt 0.001851 0.265115
vt 0.569601 0.202487
vt 0.569601 0.153337
vt 0.573893 0.153337
vt 0.573893 0.202487
vt 0.087543 0.149629
vt 0.087543 0.159022
vt 0.563899 0.153337
vt 0.563899 0.202487
vt 0.559607 0.202487
vt 0.559607 0.153337
vt 0.001851 0.159022
vt 0.001851 0.149629

# vertex normals
vn 0.000000 0.000000 1.000000
vn 0.000000 1.000000 0.000000
vn 0.000000 0.000000 -1.000000
vn 0.000000 -1.000000 0.000000
vn 1.000000 0.000000 0.000000
vn -1.000000 0.000000 0.000000

# Mesh
g Glass_low
usemtl lambert1
f 4/4/1 1/1/1 2/2/1
f 2/2/1 3/3/1 4/4/1
f 6/8/2 5/5/2 1/6/2
f 1/6/2 4/7/2 6/8/2
f 8/12/3 7/9/3 5/10/3
f 5/10/3 6/11/3 8/12/3
f 3/16/4 2/13/4 7/14/4
f 7/14/4 8/15/4 3/16/4
f 4/20/5 3/17/5 8/18/5
f 8/18/5 6/19/5 4/20/5
f 12/24/6 9/21/6 10/22/6
f 10/22/6 11/23/6 12/24/6
f 10/28/4 9/25/4 13/26/4
f 13/26/4 14/27/4 10/28/4
f 9/32/3 12/29/3 15/30/3
f 15/30/3 13/31/3 9/32/3
f 12/36/2 11/33/2 16/34/2
f 16/34/2 15/35/2 12/36/2
f 11/40/1 10/37/1 14/38/1
f 14/38/1 16/39/1 11/40/1
f 18/42/4 14/27/4 13/26/4
f 13/26/4 17/41/4 18/42/4
f 17/44/3 13/31/3 15/30/3
f 15/30/3 19/43/3 17/44/3
f 19/46/2 15/35/2 16/34/2
f 16/34/2 20/45/2 19/46/2
f 24/50/1 21/47/1 22/48/1
f 22/48/1 23/49/1 24/50/1
f 26/52/4 18/42/4 17/41/4
f 17/41/4 25/51/4 26/52/4
f 25/54/3 17/44/3 19/43/3
f 19/43/3 27/53/3 25/54/3
f 27/56/2 19/46/2 20/45/2
f 20/45/2 28/55/2 27/56/2
f 28/60/1 20/57/1 18/58/1
f 18/58/1 26/59/1 28/60/1
f 30/62/4 26/52/4 25/51/4
f 25/51/4 29/61/4 30/62/4
f 29/64/3 25/54/3 27/53/3
f 27/53/3 31/63/3 29/64/3
f 31/66/2 27/56/2 28/55/2
f 28/55/2 32/65/2 31/66/2
f 36/70/1 33/67/1 34/68/1
f 34/68/1 35/69/1 36/70/1
f 40/74/4 37/71/4 38/72/4
f 38/72/4 39/73/4 40/74/4
f 39/78/3 38/75/3 41/76/3
f 41/76/3 42/77/3 39/78/3
f 42/82/2 41/79/2 43/80/2
f 43/80/2 44/81/2 42/82/2
f 44/86/1 43/83/1 37/84/1
f 37/84/1 40/85/1 44/86/1
f 46/88/4 40/74/4 39/73/4
f 39/73/4 45/87/4 46/88/4
f 45/90/3 39/78/3 42/77/3
f 42/77/3 47/89/3 45/90/3
f 47/92/2 42/82/2 44/81/2
f 44/81/2 48/91/2 47/92/2
f 52/96/1 49/93/1 50/94/1
f 50/94/1 51/95/1 52/96/1
f 54/98/4 46/88/4 45/87/4
f 45/87/4 53/97/4 54/98/4
f 53/100/3 45/90/3 47/89/3
f 47/89/3 55/99/3 53/100/3
f 55/102/2 47/92/2 48/91/2
f 48/91/2 56/101/2 55/102/2
f 56/106/1 48/103/1 46/104/1
f 46/104/1 54/105/1 56/106/1
f 2/13/4 54/98/4 53/97/4
f 53/97/4 7/14/4 2/13/4
f 7/9/3 53/100/3 55/99/3
f 55/99/3 5/10/3 7/9/3
f 5/5/2 55/102/2 56/101/2
f 56/101/2 1/6/2 5/5/2
f 60/110/1 57/107/1 58/108/1
f 58/108/1 59/109/1 60/110/1
f 21/114/6 16/111/6 14/112/6
f 14/112/6 22/113/6 21/114/6
f 22/116/4 14/27/4 18/42/4
f 18/42/4 23/115/4 22/116/4
f 23/120/5 18/117/5 20/118/5
f 20/118/5 24/119/5 23/120/5
f 24/122/2 20/45/2 16/34/2
f 16/34/2 21/121/2 24/122/2
f 33/126/6 28/123/6 26/124/6
f 26/124/6 34/125/6 33/126/6
f 34/128/4 26/52/4 30/62/4
f 30/62/4 35/127/4 34/128/4
f 35/132/5 30/129/5 32/130/5
f 32/130/5 36/131/5 35/132/5
f 36/134/2 32/65/2 28/55/2
f 28/55/2 33/133/2 36/134/2
f 49/138/6 44/135/6 40/136/6
f 40/136/6 50/137/6 49/138/6
f 50/140/4 40/74/4 46/88/4
f 46/88/4 51/139/4 50/140/4
f 51/144/5 46/141/5 48/142/5
f 48/142/5 52/143/5 51/144/5
f 52/146/2 48/91/2 44/81/2
f 44/81/2 49/145/2 52/146/2
f 57/150/6 56/147/6 54/148/6
f 54/148/6 58/149/6 57/150/6
f 58/152/4 54/98/4 2/13/4
f 2/13/4 59/151/4 58/152/4
f 59/156/5 2/153/5 1/154/5
f 1/154/5 60/155/5 59/156/5
f 60/158/2 1/6/2 56/101/2
f 56/101/2 57/157/2 60/158/2
f 62/160/4 30/62/4 29/61/4
f 29/61/4 61/159/4 62/160/4
f 61/162/3 29/64/3 31/63/3
f 31/63/3 63/161/3 61/162/3
f 63/164/2 31/66/2 32/65/2
f 32/65/2 64/163/2 63/164/2
f 64/168/1 32/165/1 30/166/1
f 30/166/1 62/167/1 64/168/1
f 68/172/5 65/169/5 66/170/5
f 66/170/5 67/171/5 68/172/5
f 72/176/6 69/173/6 70/174/6
f 70/174/6 71/175/6 72/176/6
f 65/178/3 61/162/3 63/161/3
f 63/161/3 66/177/3 65/178/3
f 66/180/2 63/164/2 64/163/2
f 64/163/2 67/179/2 66/180/2
f 67/182/1 64/168/1 62/167/1
f 62/167/1 68/181/1 67/182/1
f 68/184/4 62/160/4 61/159/4
f 61/159/4 65/183/4 68/184/4
f 69/186/3 41/76/3 38/75/3
f 38/75/3 70/185/3 69/186/3
f 70/188/4 38/72/4 37/71/4
f 37/71/4 71/187/4 70/188/4
f 71/190/1 37/84/1 43/83/1
f 43/83/1 72/189/1 71/190/1
f 72/192/2 43/80/2 41/79/2
f 41/79/2 69/191/2 72/192/2
f 76/196/1 73/193/1 74/194/1
f 74/194/1 75/195/1 76/196/1
f 78/200/2 77/197/2 73/198/2
f 73/198/2 76/199/2 78/200/2
f 80/204/3 79/201/3 77/202/3
f 77/202/3 78/203/3 80/204/3
f 75/208/4 74/205/4 79/206/4
f 79/206/4 80/207/4 75/208/4
f 76/212/5 75/209/5 80/210/5
f 80/210/5 78/211/5 76/212/5
f 84/216/6 81/213/6 82/214/6
f 82/214/6 83/215/6 84/216/6
f 82/220/4 81/217/4 85/218/4
f 85/218/4 86/219/4 82/220/4
f 81/224/3 84/221/3 87/222/3
f 87/222/3 85/223/3 81/224/3
f 84/228/2 83/225/2 88/226/2
f 88/226/2 87/227/2 84/228/2
f 83/232/1 82/229/1 86/230/1
f 86/230/1 88/231/1 83/232/1
f 90/234/4 86/219/4 85/218/4
f 85/218/4 89/233/4 90/234/4
f 89/236/3 85/223/3 87/222/3
f 87/222/3 91/235/3 89/236/3
f 91/238/2 87/227/2 88/226/2
f 88/226/2 92/237/2 91/238/2
f 96/242/1 93/239/1 94/240/1
f 94/240/1 95/241/1 96/242/1
f 98/244/4 90/234/4 89/233/4
f 89/233/4 97/243/4 98/244/4
f 97/246/3 89/236/3 91/235/3
f 91/235/3 99/245/3 97/246/3
f 99/248/2 91/238/2 92/237/2
f 92/237/2 100/247/2 99/248/2
f 100/252/1 92/249/1 90/250/1
f 90/250/1 98/251/1 100/252/1
f 102/254/4 98/244/4 97/243/4
f 97/243/4 101/253/4 102/254/4
f 101/256/3 97/246/3 99/245/3
f 99/245/3 103/255/3 101/256/3
f 103/258/2 99/248/2 100/247/2
f 100/247/2 104/257/2 103/258/2
f 108/262/1 105/259/1 106/260/1
f 106/260/1 107/261/1 108/262/1
f 110/264/4 102/254/4 101/253/4
f 101/253/4 109/263/4 110/264/4
f 109/266/3 101/256/3 103/255/3
f 103/255/3 111/265/3 109/266/3
f 111/268/2 103/258/2 104/257/2
f 104/257/2 112/267/2 111/268/2
f 112/272/1 104/269/1 102/270/1
f 102/270/1 110/271/1 112/272/1
f 114/274/4 110/264/4 109/263/4
f 109/263/4 113/273/4 114/274/4
f 113/276/3 109/266/3 111/265/3
f 111/265/3 115/275/3 113/276/3
f 115/278/2 111/268/2 112/267/2
f 112/267/2 116/277/2 115/278/2
f 120/282/1 117/279/1 118/280/1
f 118/280/1 119/281/1 120/282/1
f 122/284/4 114/274/4 113/273/4
f 113/273/4 121/283/4 122/284/4
f 121/286/3 113/276/3 115/275/3
f 115/275/3 123/285/3 121/286/3
f 123/288/2 115/278/2 116/277/2
f 116/277/2 124/287/2 123/288/2
f 124/292/1 116/289/1 114/290/1
f 114/290/1 122/291/1 124/292/1
f 74/205/4 122/284/4 121/283/4
f 121/283/4 79/206/4 74/205/4
f 79/201/3 121/286/3 123/285/3
f 123/285/3 77/202/3 79/201/3
f 77/197/2 123/288/2 124/287/2
f 124/287/2 73/198/2 77/197/2
f 128/296/1 125/293/1 126/294/1
f 126/294/1 127/295/1 128/296/1
f 93/300/6 88/297/6 86/298/6
f 86/298/6 94/299/6 93/300/6
f 94/302/4 86/219/4 90/234/4
f 90/234/4 95/301/4 94/302/4
f 95/306/5 90/303/5 92/304/5
f 92/304/5 96/305/5 95/306/5
f 96/308/2 92/237/2 88/226/2
f 88/226/2 93/307/2 96/308/2
f 105/312/6 100/309/6 98/310/6
f 98/310/6 106/311/6 105/312/6
f 106/314/4 98/244/4 102/254/4
f 102/254/4 107/313/4 106/314/4
f 107/318/5 102/315/5 104/316/5
f 104/316/5 108/317/5 107/318/5
f 108/320/2 104/257/2 100/247/2
f 100/247/2 105/319/2 108/320/2
f 117/324/6 112/321/6 110/322/6
f 110/322/6 118/323/6 117/324/6
f 118/326/4 110/264/4 114/274/4
f 114/274/4 119/325/4 118/326/4
f 119/330/5 114/327/5 116/328/5
f 116/328/5 120/329/5 119/330/5
f 120/332/2 116/277/2 112/267/2
f 112/267/2 117/331/2 120/332/2
f 125/336/6 124/333/6 122/334/6
f 122/334/6 126/335/6 125/336/6
f 126/338/4 122/284/4 74/205/4
f 74/205/4 127/337/4 126/338/4
f 127/342/5 74/339/5 73/340/5
f 73/340/5 128/341/5 127/342/5
f 128/344/2 73/198/2 124/287/2
f 124/287/2 125/343/2 128/344/2
